<svg width="75" height="49" viewBox="0 0 75 49" fill="none" xmlns="http://www.w3.org/2000/svg">
<path d="M37.3576 0.549805C27.3264 0.549805 19.3576 8.70605 19.3576 18.5498C19.3576 25.2998 21.5139 27.3623 33.5139 46.4873C35.2951 49.2998 39.3264 49.2998 41.1076 46.4873C53.1076 27.3623 55.3576 25.2998 55.3576 18.5498C55.3576 8.6123 47.2014 0.549805 37.3576 0.549805ZM37.3576 44.0498C25.3576 24.9248 23.8576 23.7061 23.8576 18.5498C23.8576 11.1436 29.8576 5.0498 37.3576 5.0498C44.7639 5.0498 50.8576 11.1436 50.8576 18.5498C50.8576 23.7061 49.3576 24.7373 37.3576 44.0498ZM29.8576 18.5498C29.8576 22.7686 33.1389 26.0498 37.3576 26.0498C41.4826 26.0498 44.8576 22.7686 44.8576 18.5498C44.8576 14.4248 41.4826 11.0498 37.3576 11.0498C33.1389 11.0498 29.8576 14.4248 29.8576 18.5498Z" fill="#F7654A"/>
</svg>
