<svg width="33" height="35" viewBox="0 0 33 35" fill="none" xmlns="http://www.w3.org/2000/svg">
<path d="M0 29.7768C0 30.905 0.434597 31.987 1.20818 32.7847C1.98177 33.5825 3.03098 34.0306 4.125 34.0306H28.875C29.969 34.0306 31.0182 33.5825 31.7918 32.7847C32.5654 31.987 33 30.905 33 29.7768V4.25383C33 3.12564 32.5654 2.04367 31.7918 1.24592C31.0182 0.44817 29.969 0 28.875 0L4.125 0C3.03098 0 1.98177 0.44817 1.20818 1.24592C0.434597 2.04367 0 3.12564 0 4.25383L0 29.7768ZM9.28125 15.9519H21.2293L16.8011 11.3875C16.6075 11.1878 16.4987 10.917 16.4987 10.6346C16.4987 10.3522 16.6075 10.0813 16.8011 9.88165C16.9948 9.68196 17.2574 9.56977 17.5312 9.56977C17.8051 9.56977 18.0677 9.68196 18.2614 9.88165L24.4489 16.2624C24.5449 16.3612 24.6211 16.4785 24.6731 16.6077C24.7251 16.7369 24.7518 16.8754 24.7518 17.0153C24.7518 17.1552 24.7251 17.2937 24.6731 17.4229C24.6211 17.5521 24.5449 17.6695 24.4489 17.7682L18.2614 24.149C18.0677 24.3487 17.8051 24.4609 17.5312 24.4609C17.2574 24.4609 16.9948 24.3487 16.8011 24.149C16.6075 23.9493 16.4987 23.6785 16.4987 23.3961C16.4987 23.1137 16.6075 22.8428 16.8011 22.6431L21.2293 18.0788H9.28125C9.00775 18.0788 8.74544 17.9667 8.55205 17.7673C8.35865 17.5679 8.25 17.2974 8.25 17.0153C8.25 16.7333 8.35865 16.4628 8.55205 16.2633C8.74544 16.0639 9.00775 15.9519 9.28125 15.9519Z" fill="black"/>
</svg>
