<svg width="33" height="33" viewBox="0 0 33 33" fill="none" xmlns="http://www.w3.org/2000/svg">
<path d="M33 4.125C33 3.03098 32.5654 1.98177 31.7918 1.20819C31.0182 0.434597 29.969 0 28.875 0H4.125C3.03098 0 1.98177 0.434597 1.20818 1.20819C0.434597 1.98177 0 3.03098 0 4.125V28.875C0 29.969 0.434597 31.0182 1.20818 31.7918C1.98177 32.5654 3.03098 33 4.125 33H28.875C29.969 33 31.0182 32.5654 31.7918 31.7918C32.5654 31.0182 33 29.969 33 28.875V4.125ZM23.7188 17.5312H11.7707L16.1989 21.9574C16.3925 22.151 16.5013 22.4136 16.5013 22.6875C16.5013 22.9614 16.3925 23.224 16.1989 23.4176C16.0052 23.6113 15.7426 23.7201 15.4688 23.7201C15.1949 23.7201 14.9323 23.6113 14.7386 23.4176L8.55112 17.2301C8.45509 17.1343 8.37889 17.0205 8.32691 16.8952C8.27492 16.77 8.24816 16.6356 8.24816 16.5C8.24816 16.3644 8.27492 16.23 8.32691 16.1048C8.37889 15.9795 8.45509 15.8657 8.55112 15.7699L14.7386 9.58237C14.9323 9.38873 15.1949 9.27995 15.4688 9.27995C15.7426 9.27995 16.0052 9.38873 16.1989 9.58237C16.3925 9.77602 16.5013 10.0387 16.5013 10.3125C16.5013 10.5863 16.3925 10.849 16.1989 11.0426L11.7707 15.4688H23.7188C23.9923 15.4688 24.2546 15.5774 24.448 15.7708C24.6414 15.9642 24.75 16.2265 24.75 16.5C24.75 16.7735 24.6414 17.0358 24.448 17.2292C24.2546 17.4226 23.9923 17.5312 23.7188 17.5312Z" fill="black"/>
</svg>
