<svg width="75" height="47" viewBox="0 0 75 47" fill="none" xmlns="http://www.w3.org/2000/svg">
<path d="M37.5466 0.298828C24.7029 0.298828 14.2966 10.7051 14.2966 23.5488C14.2966 36.3926 24.7029 46.7988 37.5466 46.7988C50.3904 46.7988 60.7966 36.3926 60.7966 23.5488C60.7966 10.7051 50.3904 0.298828 37.5466 0.298828ZM37.5466 42.2988C27.1404 42.2988 18.7966 33.9551 18.7966 23.5488C18.7966 13.2363 27.1404 4.79883 37.5466 4.79883C47.8591 4.79883 56.2966 13.2363 56.2966 23.5488C56.2966 33.9551 47.8591 42.2988 37.5466 42.2988ZM43.2654 32.5488C43.8279 32.9238 44.4841 32.8301 44.8591 32.2676L46.6404 29.9238C47.0154 29.3613 46.9216 28.7051 46.3591 28.3301L40.1716 23.7363V10.4238C40.1716 9.86133 39.6091 9.29883 39.0466 9.29883H36.0466C35.3904 9.29883 34.9216 9.86133 34.9216 10.4238V25.8926C34.9216 26.1738 35.0154 26.5488 35.2966 26.7363L43.2654 32.5488Z" fill="#F7654A"/>
</svg>
