<svg width="75" height="42" viewBox="0 0 75 42" fill="none" xmlns="http://www.w3.org/2000/svg">
<path d="M57.1408 5.54883H18.1408C15.6096 5.54883 13.6408 7.61133 13.6408 10.0488V37.0488C13.6408 39.5801 15.6096 41.5488 18.1408 41.5488H57.1408C59.5783 41.5488 61.6408 39.5801 61.6408 37.0488V10.0488C61.6408 7.61133 59.5783 5.54883 57.1408 5.54883ZM57.1408 10.0488V13.8926C54.9846 15.6738 51.6096 18.2988 44.4846 23.9238C42.8908 25.1426 39.7971 28.1426 37.6408 28.0488C35.3908 28.1426 32.2971 25.1426 30.7033 23.9238C23.5783 18.2988 20.2033 15.6738 18.1408 13.8926V10.0488H57.1408ZM18.1408 37.0488V19.7051C20.2033 21.3926 23.2971 23.8301 27.8908 27.4863C29.9533 29.0801 33.6096 32.6426 37.6408 32.5488C41.5783 32.6426 45.1408 29.0801 47.2971 27.4863C51.8908 23.8301 54.9846 21.3926 57.1408 19.7051V37.0488H18.1408Z" fill="#F7654A"/>
</svg>
