<svg width="22" height="25" viewBox="0 0 22 25" fill="none" xmlns="http://www.w3.org/2000/svg">
<g clip-path="url(#clip0)">
<path d="M21.1646 0H5.02205C4.82394 0 4.66332 0.186562 4.66332 0.416666V6.66665H5.38077V0.833332H20.8059V23.75C20.8093 23.9691 20.6638 24.1526 20.4755 24.1666C20.4446 24.1666 20.4138 24.1637 20.3829 24.1629C20.3194 24.1608 20.2559 24.1591 20.1935 24.1516C20.1881 24.1516 20.1831 24.1516 20.1777 24.1491C19.0061 24.0004 18.0807 22.9265 17.9515 21.5658C17.9515 21.56 17.9497 21.5537 17.949 21.5479C17.9403 21.4489 17.936 21.3494 17.9361 21.25V20.4166C17.9361 20.1865 17.7755 20 17.5774 20H5.38077V12.5H4.66332V20H1.79354C1.59543 20 1.43481 20.1865 1.43481 20.4166V21.25C1.43679 23.3201 2.8811 24.9977 4.66332 24.9999H20.483C21.0651 24.9822 21.5278 24.4263 21.5233 23.75V0.416666C21.5233 0.186562 21.3627 0 21.1646 0ZM4.66332 24.1666C3.27717 24.1648 2.15383 22.86 2.15226 21.25V20.8333H17.2186V21.25C17.2191 21.3874 17.2259 21.5246 17.2391 21.6612C17.2423 21.6975 17.2484 21.7325 17.2527 21.7683C17.2645 21.8691 17.2789 21.9695 17.2979 22.0683C17.3044 22.1029 17.3126 22.137 17.3201 22.1716C17.342 22.272 17.3668 22.3708 17.3955 22.4683C17.4037 22.4962 17.4123 22.5237 17.4213 22.5516C17.454 22.655 17.4909 22.7558 17.5314 22.8554C17.54 22.8758 17.5479 22.897 17.5565 22.9158C17.6015 23.0214 17.6509 23.124 17.7047 23.2237C17.7119 23.237 17.7183 23.2508 17.7255 23.2654C17.784 23.3718 17.8471 23.4747 17.9146 23.5737L17.926 23.5916C18.0043 23.7058 18.0882 23.8147 18.1771 23.9179C18.2544 24.0068 18.3345 24.0901 18.4175 24.1679L4.66332 24.1666Z" fill="#F7654A"/>
<path d="M11.8379 11.6667C11.933 11.6667 12.0242 11.6227 12.0915 11.5446L13.5264 9.87791C13.6664 9.7152 13.6664 9.45145 13.5264 9.28875L12.0915 7.62208C12.0242 7.54396 11.933 7.5 11.8379 7.5H1.79362C0.803047 7.5 0 8.43276 0 9.58333C0 10.7339 0.803047 11.6667 1.79362 11.6667H11.8379ZM11.7453 8.39833L12.7655 9.58333L11.7453 10.7683L11.4903 9.58333L11.7453 8.39833ZM2.86979 8.33333H11.02L10.8406 9.16666H3.58723V10H10.8406L11.02 10.8333H2.86979V8.33333ZM0.717446 9.58333C0.717446 8.89297 1.19926 8.33333 1.79362 8.33333H2.15234V10.8333H1.79362C1.19926 10.8333 0.717446 10.2737 0.717446 9.58333Z" fill="#F7654A"/>
<path d="M8.2505 17.9162H19.0122C19.2103 17.9162 19.3709 17.7296 19.3709 17.4995V4.99957C19.3709 4.76947 19.2103 4.58296 19.0121 4.58301C18.917 4.58301 18.8258 4.62691 18.7586 4.70499L7.99688 17.205C7.8568 17.3677 7.85684 17.6315 7.99697 17.7942C8.06423 17.8723 8.15539 17.9162 8.2505 17.9162ZM18.6535 6.0054V7.0829H17.936V7.91623H18.6535V8.74956H17.936V9.58289H18.6535V10.4162H17.936V11.2496H18.6535V12.0829H17.936V12.9162H18.6535V13.7496H17.936V14.5829H18.6535V15.4162H17.936V16.2495H18.6535V17.0829H17.936V16.2495H17.2186V17.0829H16.5011V16.2495H15.7837V17.0829H15.0662V16.2495H14.3488V17.0829H13.6313V16.2495H12.9139V17.0829H12.1965V16.2495H11.479V17.0829H10.7616V16.2495H10.0441V17.0829H9.11645L18.6535 6.0054Z" fill="#F7654A"/>
<path d="M13.4465 15.4169H16.8598C17.0579 15.4169 17.2185 15.2304 17.2185 15.0003V11.0357C17.2185 10.8056 17.0579 10.6191 16.8597 10.6191C16.7646 10.6191 16.6734 10.663 16.6062 10.7411L13.1929 14.7057C13.0528 14.8685 13.0529 15.1323 13.193 15.295C13.2603 15.373 13.3514 15.4169 13.4465 15.4169ZM16.5011 12.0419V14.5836H14.3129L16.5011 12.0419Z" fill="#F7654A"/>
<path d="M16.5011 2.5H9.32666V3.33333H16.5011V2.5Z" fill="#F7654A"/>
<path d="M17.5775 4.16699H8.25073V5.00032H17.5775V4.16699Z" fill="#F7654A"/>
<path d="M8.25073 12.917H6.09839V13.7503H8.25073V12.917Z" fill="#F7654A"/>
<path d="M7.53328 14.583H6.09839V15.4163H7.53328V14.583Z" fill="#F7654A"/>
</g>
<defs>
<clipPath id="clip0">
<rect width="21.5234" height="25" fill="white"/>
</clipPath>
</defs>
</svg>
