<svg width="35" height="28" viewBox="0 0 35 28" fill="none" xmlns="http://www.w3.org/2000/svg">
<path d="M0.931633 27.736C0.931633 24.728 0.995633 21.176 1.12363 17.08C1.31563 11.256 2.24363 7.032 3.90763 4.408C5.57163 1.784 8.51563 0.471998 12.7396 0.471998L13.8916 5.368C11.5876 5.432 10.0196 6.2 9.18763 7.672C8.41963 9.08 8.03563 11.192 8.03563 14.008H14.7556V27.736H0.931633ZM20.6116 27.736C20.6116 24.728 20.6756 21.176 20.8036 17.08C20.9956 11.256 21.9236 7.032 23.5876 4.408C25.2516 1.784 28.1956 0.471998 32.4196 0.471998L33.5716 5.368C31.2676 5.432 29.6996 6.2 28.8676 7.672C28.0996 9.08 27.7156 11.192 27.7156 14.008H34.4356V27.736H20.6116Z" fill="#F7654A"/>
</svg>
