<svg width="75" height="49" viewBox="0 0 75 49" fill="none" xmlns="http://www.w3.org/2000/svg">
<path d="M58.0774 2.70508L49.2649 0.736328C47.2024 0.267578 45.1399 1.29883 44.3899 3.17383L40.2649 12.7363C39.5149 14.4238 39.9836 16.4863 41.4836 17.7051L45.2336 20.7988C42.6086 25.6738 38.4836 29.7051 33.6086 32.4238L30.5149 28.6738C29.2961 27.1738 27.2336 26.7051 25.5461 27.4551L15.9836 31.4863C14.1086 32.3301 13.0774 34.3926 13.5461 36.4551L15.5149 45.2676C15.9836 47.2363 17.7649 48.5488 19.7336 48.5488C42.7024 48.5488 61.4524 29.9863 61.4524 6.92383C61.4524 4.95508 60.0461 3.17383 58.0774 2.70508ZM19.9211 44.0488L17.9524 35.6113L27.1399 31.6738L32.3899 38.0488C41.6711 33.6426 46.4524 28.8613 50.8586 19.5801L44.4836 14.3301L48.4211 5.14258L56.9524 7.11133C56.8586 27.4551 40.2649 43.9551 19.9211 44.0488Z" fill="#F7654A"/>
</svg>
