<svg width="30" height="30" viewBox="0 0 30 30" fill="none" xmlns="http://www.w3.org/2000/svg">
<path d="M11.8364 21.023C11.7231 21.023 11.609 20.9841 11.5158 20.9047L8.31084 18.1757C8.20029 18.0815 8.13672 17.9438 8.13672 17.7985C8.13672 17.6534 8.20056 17.5157 8.31084 17.4215L11.5158 14.6925C11.7239 14.515 12.0365 14.5402 12.214 14.7483C12.3911 14.9567 12.3663 15.2693 12.1579 15.4465L9.39594 17.7985L12.1579 20.1505C12.3663 20.3279 12.3911 20.6405 12.214 20.8486C12.1159 20.9639 11.9766 21.023 11.8364 21.023Z" fill="#F7654A"/>
<path d="M18.1635 21.023C18.0234 21.023 17.8841 20.9639 17.7862 20.8486C17.6088 20.6405 17.6339 20.3279 17.8421 20.1505L20.604 17.7985L17.8421 15.4465C17.6339 15.2693 17.6088 14.9567 17.7862 14.7483C17.9634 14.5402 18.2763 14.515 18.4841 14.6925L21.6891 17.4215C21.7996 17.5157 21.8632 17.6534 21.8632 17.7985C21.8632 17.9438 21.7996 18.0815 21.6891 18.1757L18.4841 20.9047C18.391 20.9841 18.2768 21.023 18.1635 21.023Z" fill="#F7654A"/>
<path d="M13.8652 23.0701C13.8312 23.0701 13.7969 23.0665 13.7624 23.0593C13.4949 23.0029 13.3235 22.7401 13.3799 22.4725L15.3773 12.989C15.4337 12.7214 15.6963 12.5501 15.9641 12.6064C16.2317 12.6628 16.403 12.9254 16.3466 13.1932L14.3492 22.6768C14.3 22.91 14.0943 23.0701 13.8652 23.0701Z" fill="#F7654A"/>
<path d="M26.6745 28.2369H3.32547C1.49193 28.2369 0 26.7452 0 24.9114V5.09403C0 3.26048 1.49193 1.76855 3.32547 1.76855H26.6745C28.5081 1.76855 30 3.26048 30 5.09403V24.9114C30 26.7452 28.5081 28.2369 26.6745 28.2369ZM3.32547 2.75912C2.03807 2.75912 0.990566 3.80662 0.990566 5.09403V24.9114C0.990566 26.1988 2.03807 27.2463 3.32547 27.2463H26.6745C27.9619 27.2463 29.0094 26.1988 29.0094 24.9114V5.09403C29.0094 3.80662 27.9619 2.75912 26.6745 2.75912H3.32547Z" fill="#F7654A"/>
<path d="M29.5047 9.69955H0.495283C0.221661 9.69955 0 9.47789 0 9.20427C0 8.93092 0.221661 8.70898 0.495283 8.70898H29.5047C29.7783 8.70898 30 8.93092 30 9.20427C30 9.47789 29.7783 9.69955 29.5047 9.69955Z" fill="#F7654A"/>
<path d="M8.46191 7.33008C7.59793 7.33008 6.89453 6.62668 6.89453 5.7627C6.89453 4.89844 7.59793 4.19531 8.46191 4.19531C9.32617 4.19531 10.0293 4.89844 10.0293 5.7627C10.0293 6.62668 9.32617 7.33008 8.46191 7.33008ZM8.46191 5.18588C8.14407 5.18588 7.8851 5.44458 7.8851 5.7627C7.8851 6.08082 8.14407 6.33951 8.46191 6.33951C8.78003 6.33951 9.03873 6.08082 9.03873 5.7627C9.03873 5.44458 8.78003 5.18588 8.46191 5.18588Z" fill="#F7654A"/>
<path d="M3.64648 7.31445C2.78223 7.31445 2.0791 6.61133 2.0791 5.74707C2.0791 4.88281 2.78223 4.17969 3.64648 4.17969C4.51074 4.17969 5.21386 4.88281 5.21386 5.74707C5.21386 6.61133 4.51074 7.31445 3.64648 7.31445ZM3.64648 5.17025C3.32864 5.17025 3.06967 5.42923 3.06967 5.74707C3.06967 6.06519 3.32864 6.32389 3.64648 6.32389C3.9646 6.32389 4.2233 6.06519 4.2233 5.74707C4.2233 5.42923 3.9646 5.17025 3.64648 5.17025Z" fill="#F7654A"/>
<path d="M13.278 7.34445C12.4141 7.34445 11.7109 6.64133 11.7109 5.77707C11.7109 4.91309 12.4141 4.20996 13.278 4.20996C14.1423 4.20996 14.8454 4.91309 14.8454 5.77707C14.8454 6.64133 14.1423 7.34445 13.278 7.34445ZM13.278 5.20025C12.9602 5.20025 12.7015 5.45895 12.7015 5.77707C12.7015 6.09519 12.9602 6.35388 13.278 6.35388C13.5962 6.35388 13.8549 6.09519 13.8549 5.77707C13.8549 5.45895 13.5962 5.20025 13.278 5.20025Z" fill="#F7654A"/>
</svg>
